<?xml version="1.0" encoding="UTF-8" standalone="no"?>
<!-- Created with Inkscape (http://www.inkscape.org/) -->

<svg
   width="120mm"
   height="120mm"
   viewBox="0 0 120 120"
   version="1.1"
   id="svg1"
   sodipodi:docname="HealthBar progress.svg"
   inkscape:version="1.3.2 (091e20ef0f, 2023-11-25, custom)"
   xmlns:inkscape="http://www.inkscape.org/namespaces/inkscape"
   xmlns:sodipodi="http://sodipodi.sourceforge.net/DTD/sodipodi-0.dtd"
   xmlns="http://www.w3.org/2000/svg"
   xmlns:svg="http://www.w3.org/2000/svg">
  <sodipodi:namedview
     id="namedview1"
     pagecolor="#505050"
     bordercolor="#eeeeee"
     borderopacity="1"
     inkscape:showpageshadow="0"
     inkscape:pageopacity="0"
     inkscape:pagecheckerboard="0"
     inkscape:deskcolor="#505050"
     inkscape:document-units="mm"
     showgrid="false"
     inkscape:zoom="1.7903485"
     inkscape:cx="239.89743"
     inkscape:cy="140.19617"
     inkscape:window-width="1920"
     inkscape:window-height="1016"
     inkscape:window-x="0"
     inkscape:window-y="0"
     inkscape:window-maximized="1"
     inkscape:current-layer="layer1">
    <inkscape:grid
       id="grid2"
       units="mm"
       originx="-49.95501"
       originy="-80.110367"
       spacingx="0.99999998"
       spacingy="1"
       empcolor="#0099e5"
       empopacity="0.30196078"
       color="#0099e5"
       opacity="0.14901961"
       empspacing="5"
       dotted="false"
       gridanglex="30"
       gridanglez="30"
       visible="false" />
  </sodipodi:namedview>
  <defs
     id="defs1" />
  <g
     inkscape:label="Слой 1"
     inkscape:groupmode="layer"
     id="layer1"
     transform="translate(-49.955009,-80.110367)">
    <path
       id="path1"
       style="fill:#cc0000;fill-opacity:1;stroke:none;stroke-width:0.264583;stroke-opacity:1"
       d="M 109.95496 80.110367 A 60 60 0 0 0 49.955009 140.11032 A 60 60 0 0 0 109.95496 200.11028 A 60 60 0 0 0 169.95492 140.11032 A 60 60 0 0 0 109.95496 80.110367 z M 109.97719 105.4127 A 35 35 0 0 1 144.97712 140.41263 A 35 35 0 0 1 109.97719 175.41256 A 35 35 0 0 1 74.977254 140.41263 A 35 35 0 0 1 109.97719 105.4127 z " />
  </g>
</svg>
