<?xml version="1.0" encoding="UTF-8" standalone="no"?>
<!-- Created with Inkscape (http://www.inkscape.org/) -->

<svg
   width="120mm"
   height="120mm"
   viewBox="0 0 120 120"
   version="1.1"
   id="svg1"
   sodipodi:docname="ManaBar progress.svg"
   inkscape:version="1.3.2 (091e20ef0f, 2023-11-25, custom)"
   xmlns:inkscape="http://www.inkscape.org/namespaces/inkscape"
   xmlns:sodipodi="http://sodipodi.sourceforge.net/DTD/sodipodi-0.dtd"
   xmlns="http://www.w3.org/2000/svg"
   xmlns:svg="http://www.w3.org/2000/svg">
  <sodipodi:namedview
     id="namedview1"
     pagecolor="#505050"
     bordercolor="#eeeeee"
     borderopacity="1"
     inkscape:showpageshadow="0"
     inkscape:pageopacity="0"
     inkscape:pagecheckerboard="0"
     inkscape:deskcolor="#505050"
     inkscape:document-units="mm"
     showgrid="false"
     inkscape:zoom="2.5319351"
     inkscape:cx="227.69146"
     inkscape:cy="223.93939"
     inkscape:window-width="1920"
     inkscape:window-height="1016"
     inkscape:window-x="0"
     inkscape:window-y="0"
     inkscape:window-maximized="1"
     inkscape:current-layer="layer1">
    <inkscape:grid
       id="grid2"
       units="mm"
       originx="-49.95501"
       originy="-80.110367"
       spacingx="0.99999998"
       spacingy="1"
       empcolor="#0099e5"
       empopacity="0.30196078"
       color="#0099e5"
       opacity="0.14901961"
       empspacing="5"
       dotted="false"
       gridanglex="30"
       gridanglez="30"
       visible="false" />
  </sodipodi:namedview>
  <defs
     id="defs1" />
  <g
     inkscape:label="Слой 1"
     inkscape:groupmode="layer"
     id="layer1"
     transform="translate(-49.955009,-80.110367)">
    <path
       id="path1"
       style="fill:#00ffff;stroke-width:0.26457;fill-opacity:1"
       d="M 109.95496 80.110367 A 60 60 0 0 0 49.955009 140.11032 A 60 60 0 0 0 109.95496 200.11028 A 60 60 0 0 0 169.95492 140.11032 A 60 60 0 0 0 109.95496 80.110367 z M 109.95496 90.110273 A 50 50 0 0 1 159.95501 140.11032 A 50 50 0 0 1 109.95496 190.11037 A 50 50 0 0 1 59.954915 140.11032 A 50 50 0 0 1 109.95496 90.110273 z " />
    <path
       style="fill:#000000;fill-opacity:1;stroke-width:0.264583"
       id="path2"
       sodipodi:type="arc"
       sodipodi:cx="51.03384"
       sodipodi:cy="87.011848"
       sodipodi:rx="5.9261026"
       sodipodi:ry="3.7093568"
       sodipodi:start="0"
       sodipodi:end="0.00024800203"
       sodipodi:arc-type="slice"
       d="m 56.959943,87.011848 a 5.9261026,3.7093568 0 0 1 0,9.2e-4 l -5.926103,-9.2e-4 z" />
    <path
       style="fill:#000000;fill-opacity:1;stroke-width:0.264583"
       id="path3"
       sodipodi:type="arc"
       sodipodi:cx="52.334332"
       sodipodi:cy="86.952736"
       sodipodi:rx="3.9458094"
       sodipodi:ry="1.2265995"
       sodipodi:start="0"
       sodipodi:end="0.00024800203"
       sodipodi:arc-type="slice"
       d="m 56.280141,86.952736 a 3.9458094,1.2265995 0 0 1 0,3.04e-4 l -3.945809,-3.04e-4 z" />
    <path
       style="fill:#000000;fill-opacity:1;stroke-width:0.264583"
       id="path4"
       sodipodi:type="arc"
       sodipodi:cx="53.605267"
       sodipodi:cy="96.366516"
       sodipodi:rx="0.60590959"
       sodipodi:ry="0.65024722"
       sodipodi:start="0"
       sodipodi:end="0.00024800203"
       sodipodi:arc-type="slice"
       d="m 54.211176,96.366516 a 0.60590959,0.65024722 0 0 1 0,1.61e-4 l -0.605909,-1.61e-4 z" />
  </g>
</svg>
