<?xml version="1.0" encoding="UTF-8" standalone="no"?>
<!-- Uploaded to: SVG Repo, www.svgrepo.com, Generator: SVG Repo Mixer Tools -->

<svg
   fill="#000000"
   width="800px"
   height="800px"
   viewBox="0 0 16 16"
   version="1.1"
   id="svg1"
   sodipodi:docname="fire-svgrepo-com.svg"
   inkscape:version="1.3.2 (091e20ef0f, 2023-11-25, custom)"
   xmlns:inkscape="http://www.inkscape.org/namespaces/inkscape"
   xmlns:sodipodi="http://sodipodi.sourceforge.net/DTD/sodipodi-0.dtd"
   xmlns="http://www.w3.org/2000/svg"
   xmlns:svg="http://www.w3.org/2000/svg">
  <defs
     id="defs1" />
  <sodipodi:namedview
     id="namedview1"
     pagecolor="#505050"
     bordercolor="#ffffff"
     borderopacity="1"
     inkscape:showpageshadow="0"
     inkscape:pageopacity="0"
     inkscape:pagecheckerboard="1"
     inkscape:deskcolor="#505050"
     inkscape:zoom="1.015"
     inkscape:cx="369.95074"
     inkscape:cy="443.34975"
     inkscape:window-width="1920"
     inkscape:window-height="1016"
     inkscape:window-x="0"
     inkscape:window-y="0"
     inkscape:window-maximized="1"
     inkscape:current-layer="svg1" />
  <path
     d="M9.32 15.653a.812.812 0 0 1-.086-.855c.176-.342.245-.733.2-1.118a2.106 2.106 0 0 0-.267-.779 2.027 2.027 0 0 0-.541-.606 3.96 3.96 0 0 1-1.481-2.282c-1.708 2.239-1.053 3.51-.235 4.63a.748.748 0 0 1-.014.901.87.87 0 0 1-.394.283.838.838 0 0 1-.478.023c-1.105-.27-2.145-.784-2.85-1.603a4.686 4.686 0 0 1-.906-1.555 4.811 4.811 0 0 1-.263-1.797s-.133-2.463 2.837-4.876c0 0 3.51-2.978 2.292-5.18a.621.621 0 0 1 .112-.653.558.558 0 0 1 .623-.147l.146.058a7.63 7.63 0 0 1 2.96 3.5c.58 1.413.576 3.06.184 4.527.325-.292.596-.641.801-1.033l.029-.064c.198-.477.821-.325 1.055-.013.086.137 2.292 3.343 1.107 6.048a5.516 5.516 0 0 1-1.84 2.027 6.127 6.127 0 0 1-2.138.893.834.834 0 0 1-.472-.038.867.867 0 0 1-.381-.29zM7.554 7.892a.422.422 0 0 1 .55.146c.04.059.066.126.075.198l.045.349c.02.511.014 1.045.213 1.536.206.504.526.95.932 1.298a3.06 3.06 0 0 1 1.16 1.422c.22.564.25 1.19.084 1.773a4.123 4.123 0 0 0 1.39-.757l.103-.084c.336-.277.613-.623.813-1.017.201-.393.322-.825.354-1.269.065-1.025-.284-2.054-.827-2.972-.248.36-.59.639-.985.804-.247.105-.509.17-.776.19a.792.792 0 0 1-.439-.1.832.832 0 0 1-.321-.328.825.825 0 0 1-.035-.729c.412-.972.54-2.05.365-3.097a5.874 5.874 0 0 0-1.642-3.16c-.156 2.205-2.417 4.258-2.881 4.7a3.537 3.537 0 0 1-.224.194c-2.426 1.965-2.26 3.755-2.26 3.834a3.678 3.678 0 0 0 .459 2.043c.365.645.89 1.177 1.52 1.54C4.5 12.808 4.5 10.89 7.183 8.14l.372-.25z"
     id="path1" />
  <path
     style="fill:#00ffff;stroke-width:0.985222;fill-opacity:1"
     d="m 532.3742,726.35468 c 3.28856,-15.25137 3.7888,-21.05362 3.29152,-38.17734 -0.55062,-18.96006 -2.4666,-29.51764 -8.0478,-44.34553 -3.74884,-9.95973 -12.40824,-26.06135 -18.93642,-35.21109 -7.1112,-9.96689 -23.32137,-26.38184 -31.83445,-32.23662 -10.43825,-7.17879 -29.13758,-26.66898 -37.30419,-38.88189 -19.41023,-29.02739 -25.54793,-49.69397 -27.23056,-91.6894 -0.83166,-20.75677 -2.89027,-36.92943 -5.29619,-41.60738 -4.34761,-8.45327 -11.34467,-12.45466 -20.84068,-11.91809 -6.30711,0.35638 -7.13053,0.70778 -16.97813,7.24558 -8.00269,5.31295 -12.96624,9.66361 -21.8891,19.18629 -60.28278,64.33511 -94.89483,124.49289 -104.52027,181.66244 -2.17608,12.92466 -2.90957,38.38794 -1.46478,50.84988 2.34446,20.22189 7.83477,41.48669 15.25219,59.07408 1.83736,4.35654 3.02149,7.92099 2.63141,7.92099 -1.17851,0 -17.8823,-11.65229 -24.73778,-17.25668 -8.13296,-6.64873 -25.76737,-24.76838 -31.62675,-32.49701 -28.03333,-36.97652 -40.28064,-73.24996 -40.28064,-119.30112 0,-26.20972 2.45776,-42.41099 9.523,-62.77437 16.31564,-47.02482 49.22236,-90.89848 100.32921,-133.76629 17.24338,-14.46352 49.48453,-46.111 65.16104,-63.96118 49.78209,-56.68478 79.74929,-109.74863 90.07376,-159.49643 1.05585,-5.08757 2.20499,-12.31933 2.55363,-16.07059 l 0.6339,-6.82047 4.38264,4.24793 c 12.08304,11.71166 28.78237,33.6287 39.84108,52.28948 45.78413,77.25736 53.40876,165.4349 21.45427,248.1149 -6.03197,15.60728 -7.06505,23.30156 -4.48126,33.37592 3.18719,12.42708 10.63336,21.71468 21.85636,27.26139 8.59357,4.24717 16.60144,5.17242 29.0335,3.35462 28.83036,-4.21556 56.51377,-19.57399 73.62762,-40.84773 l 5.90394,-7.33902 5.98253,11.02085 c 17.94298,33.05411 30.04324,69.36256 33.68548,101.07784 0.73859,6.43136 0.98104,17.28972 0.64897,29.06404 -0.73545,26.07644 -4.44135,41.88002 -15.14128,64.569 -5.82052,12.3423 -8.91764,17.57166 -16.76963,28.31484 -18.85329,25.79531 -54.09722,51.78726 -87.9477,64.86034 -10.77617,4.16176 -11.29064,4.19631 -10.53844,0.70782 z"
     id="path2"
     transform="scale(0.02)" />
</svg>
